<?xml version="1.0" ?><!DOCTYPE svg  PUBLIC '-//W3C//DTD SVG 1.1 Tiny//EN'  'http://www.w3.org/Graphics/SVG/1.1/DTD/svg11-tiny.dtd'><svg baseProfile="tiny" id="Layer_1" overflow="scroll" version="1.1" viewBox="0 0 128 128" xml:space="preserve" xmlns="http://www.w3.org/2000/svg" xmlns:xlink="http://www.w3.org/1999/xlink"><g><g><path d="M64,106.2c-0.1,0-0.3,0-0.4,0c-11.8-0.2-24-8.1-27.2-18.3c-4-12.9,12-33,12-50.4     c0-8.6,7-15.6,15.6-15.6c8.6,0,15.6,7,15.6,15.6c0,17.4,16,37.5,12,50.4c-3.2,10.2-15.4,18.1-27.2,18.3     C64.3,106.2,64.1,106.2,64,106.2" fill="#7EB642" fill-rule="evenodd"/><path d="M64,58.9c8.8,0,16,8.1,16,18c0,10-7.2,18-16,18c-8.8,0-16-8.1-16-18     C48,67,55.2,58.9,64,58.9" fill="#4E602B" fill-rule="evenodd"/></g></g></svg>