<?xml version="1.0" ?><!DOCTYPE svg  PUBLIC '-//W3C//DTD SVG 1.1//EN'  'http://www.w3.org/Graphics/SVG/1.1/DTD/svg11.dtd'><svg enable-background="new 0 0 75 75" height="75px" id="Calque_1" version="1.1" viewBox="0 0 75 75" width="75px" xml:space="preserve" xmlns="http://www.w3.org/2000/svg" xmlns:xlink="http://www.w3.org/1999/xlink"><g><g><g><g><path d="M34.977,27.395v25.114c0,0.51,1,0.924,1,0.959V26.435C35.977,26.471,34.977,26.884,34.977,27.395z" fill="#38A600"/></g></g><g><g><path d="M35.984,47.625c-2.861-0.94-9.519-5.646-9.519-11.951c0-6.351,6.743-11.913,10.007-13.302      c0.537-0.229,0.574-0.873,0.387-1.374s-0.677-0.563-0.949-0.458C31.75,22.155,24.53,28.448,24.53,35.673      c0,7.632,8.041,13.03,11.235,13.891l0.216,0.069l-0.005-0.008v-2.013C35.977,47.616,35.996,47.621,35.984,47.625z" fill="#38A600"/></g></g><g><g><g><path d="M31.182,37.729c-0.415-0.334-1-0.266-1.336,0.149c-0.334,0.416-0.256,1.024,0.16,1.358l5.521,4.461       c0.146,0.117,0.449,0.182,0.449,0.203v-2.289L31.182,37.729z" fill="#38A600"/></g></g><g><g><path d="M35.437,42.191c-0.416,0.334-0.505,0.942-0.171,1.358c0.186,0.231,0.711,0.353,0.711,0.359v-2.186       L35.437,42.191z" fill="#38A600"/></g></g><g><g><path d="M32.542,32.557c-0.417-0.335-1.001-0.267-1.336,0.149c-0.334,0.416-0.256,1.024,0.16,1.358l4.151,3.362       c0.149,0.119,0.46,0.184,0.46,0.204v-2.28L32.542,32.557z" fill="#38A600"/></g></g><g><g><path d="M35.449,35.919c-0.416,0.334-0.505,0.942-0.171,1.358c0.184,0.228,0.699,0.348,0.699,0.358V35.46       L35.449,35.919z" fill="#38A600"/></g></g><g><g><path d="M34.118,28.513c-0.417-0.335-1.001-0.266-1.336,0.149c-0.334,0.416-0.256,1.024,0.16,1.358l2.561,2.086       c0.153,0.123,0.474,0.188,0.474,0.205v-2.27L34.118,28.513z" fill="#38A600"/></g></g><g><g><path d="M35.462,30.599c-0.416,0.334-0.505,0.942-0.171,1.358c0.181,0.225,0.686,0.344,0.686,0.357v-2.163       L35.462,30.599z" fill="#38A600"/></g></g></g></g><g><path d="M35.977,54.503c-0.579,0-1-0.469-1-1.047V26.237c0-0.578,0.421-1.047,1-1.047s1,0.469,1,1.047v27.219    C36.977,54.034,36.556,54.503,35.977,54.503z" fill="#38A600"/></g><g><g><path d="M39.496,26.429c-0.023,0-0.519,0.005-0.519,0.007v27.033c0,0.002,0.496,0.007,0.519,0.007     c0.534,0,1.481-0.433,1.481-0.966V27.395C40.977,26.861,40.03,26.429,39.496,26.429z" fill="#38A600"/></g><g><path d="M38.693,21.04c-0.271,0.48,0.128,1.229,0.446,1.381c3.139,1.534,9.494,7.08,9.494,13.253     c0,6.427-5.656,10.932-9.656,11.938v2.013l0.2-0.061c3.789-1.045,11.293-6.354,11.293-13.89c0-7.023-6.75-13.214-10.731-15.045     C39.451,20.497,38.964,20.56,38.693,21.04z" fill="#38A600"/></g><g><path d="M45.27,37.878c-0.334-0.415-0.921-0.483-1.338-0.149l-4.955,3.992v2.186c0,0-0.006,0.002,0.001,0.002     c0.211,0,0.415-0.069,0.594-0.213l5.555-4.461C45.542,38.902,45.604,38.294,45.27,37.878z" fill="#38A600"/></g><g><path d="M43.912,32.706c-0.334-0.416-0.921-0.484-1.338-0.149l-3.597,2.903v2.175c0,0,0.002,0.004,0.013,0.004     c0.211,0,0.415-0.069,0.594-0.213l4.184-3.362C44.184,33.73,44.246,33.122,43.912,32.706z" fill="#38A600"/></g><g><path d="M42.335,28.662c-0.334-0.415-0.92-0.483-1.338-0.149l-2.02,1.638v2.163c0,0.001,0.011,0.005,0.026,0.005     c0.211,0,0.415-0.069,0.594-0.213l2.595-2.086C42.607,29.686,42.669,29.078,42.335,28.662z" fill="#38A600"/></g><g><path d="M39.977,54.503c-0.579,0-1-0.469-1-1.047V26.237c0-0.578,0.421-1.047,1-1.047s1,0.469,1,1.047v27.219     C40.977,54.034,40.556,54.503,39.977,54.503z" fill="#38A600"/></g></g></g></svg>